<?xml version="1.0" encoding="utf-8"?>
<!-- Generator: Adobe Illustrator 17.1.0, SVG Export Plug-In . SVG Version: 6.00 Build 0)  -->
<!DOCTYPE svg PUBLIC "-//W3C//DTD SVG 1.1//EN" "http://www.w3.org/Graphics/SVG/1.1/DTD/svg11.dtd">
<svg version="1.1" id="Layer_1" xmlns="http://www.w3.org/2000/svg" xmlns:xlink="http://www.w3.org/1999/xlink" x="0px" y="0px"
	 viewBox="0 0 76 74" enable-background="new 0 0 76 74" xml:space="preserve">
<g>
	<g>
		<g>
			<path fill="#FFFFFF" d="M5.4,60.2v6.2c0,2.3,2.2,4.3,4.7,4.3h6.2c2.5,0,4.7-2,4.7-4.3v-6.6h34.2v6.6c0,2.3,2.2,4.3,4.7,4.3h6.2
				c2.5,0,4.7-2,4.7-4.3v-6.7c0,0,0-0.1,0-0.1c1.4-1.7,2.2-3.7,2.4-5.6l1.5-16.8c0.3-3.8-1.6-7.3-4.8-9c0-0.6-0.2-1.1-0.4-1.5
				l-4.9-15.9c-1.8-4.4-6.7-7.1-13-7.1H31.6l0.3,3.1h19.7c1.9,0,8.1,0.4,10.1,5l4.9,15.9c0.2,0.4,0.2,0.8,0.2,1.3
				c-0.1,0.7,0.3,1.4,1,1.6c2.5,0.9,4.1,3.4,3.9,6.2l-1.5,16.8c-0.1,1.8-1.1,3.2-1.9,4.1c-0.2,0.2-0.3,0.4-0.3,0.7
				c-0.1,0.2-0.2,0.5-0.2,0.8v7c0,0.6-0.8,1.2-1.6,1.2h-6.2c-0.8,0-1.6-0.6-1.6-1.2v-8.1c0-0.9-0.7-1.6-1.6-1.6H19.4
				c-0.9,0-1.6,0.7-1.6,1.6v8.1c0,0.6-0.8,1.2-1.6,1.2h-6.2c-0.7,0-1.6-0.6-1.6-1.2v-7"/>
			<path fill="#FFFFFF" d="M66.1,71.2h-6.2c-2.8,0-5.2-2.3-5.2-4.8v-6.1H21.5v6.1c0,2.6-2.4,4.8-5.2,4.8h-6.2
				c-2.8,0-5.2-2.3-5.2-4.8v-6.2h1v6.2c0,2,1.9,3.8,4.2,3.8h6.2c2.2,0,4.2-1.8,4.2-3.8v-7.1h35.2v7.1c0,2,2,3.8,4.2,3.8h6.2
				c2.2,0,4.2-1.8,4.2-3.8l0.1-6.9l0.1-0.1c1.3-1.7,2.1-3.5,2.3-5.3l1.5-16.8c0.3-3.6-1.5-6.9-4.6-8.5l-0.2-0.1l0-0.3
				c0-0.5-0.1-1-0.3-1.4L64.1,11c-1.8-4.2-6.4-6.7-12.5-6.7H32.1l0.2,2.1h19.2c1.9,0,8.5,0.4,10.5,5.3L67,27.6
				c0.2,0.4,0.3,1,0.2,1.5c-0.1,0.5,0.2,0.9,0.7,1.1c2.8,1,4.4,3.7,4.2,6.8l-1.5,16.8c-0.2,1.9-1.2,3.5-2,4.4
				c-0.1,0.1-0.2,0.3-0.2,0.5l0,0.1c-0.1,0.2-0.1,0.4-0.1,0.6v7c0,0.9-1,1.7-2.1,1.7h-6.2c-1,0-2.1-0.9-2.1-1.7v-8.1
				c0-0.6-0.5-1.1-1.1-1.1H19.4c-0.6,0-1.1,0.5-1.1,1.1v8.1c0,0.9-1,1.7-2.1,1.7h-6.2c-1,0-2.1-0.9-2.1-1.7v-7h1v7
				c0,0.3,0.5,0.7,1.1,0.7h6.2c0.5,0,1.1-0.5,1.1-0.7v-8.1c0-1.1,0.9-2.1,2.1-2.1h37.4c1.1,0,2.1,0.9,2.1,2.1v8.1
				c0,0.3,0.6,0.7,1.1,0.7h6.2c0.5,0,1.1-0.5,1.1-0.7v-7c0-0.3,0.1-0.7,0.2-1c0.1-0.3,0.2-0.6,0.4-0.9c0.7-0.9,1.6-2.2,1.8-3.9
				L71,36.9c0.2-2.6-1.2-4.9-3.5-5.7C66.6,30.8,66,30,66.1,29c0-0.4,0-0.7-0.1-1.1L61.1,12c-1.8-4.3-7.8-4.7-9.6-4.7H31.4L31,3.3
				h20.5C58,3.3,63.1,6,65,10.6l4.9,15.9c0.2,0.4,0.3,0.9,0.4,1.4c3.3,1.8,5.2,5.4,4.9,9.3L73.7,54c-0.2,2-1,4-2.4,5.8v6.5
				C71.3,68.9,68.8,71.2,66.1,71.2z"/>
		</g>
		<g>
			<path fill="#FFFFFF" d="M16.3,30.2h43.6c0.9,0,1.6-0.7,1.6-1.6s-0.7-1.6-1.6-1.6H16.3c-0.9,0-1.6,0.7-1.6,1.6
				S15.4,30.2,16.3,30.2z"/>
			<path fill="#FFFFFF" d="M59.9,30.7H16.3c-1.1,0-2.1-0.9-2.1-2.1s0.9-2.1,2.1-2.1h43.6c1.1,0,2.1,0.9,2.1,2.1S61,30.7,59.9,30.7z
				 M16.3,27.6c-0.6,0-1.1,0.5-1.1,1.1s0.5,1.1,1.1,1.1h43.6c0.6,0,1.1-0.5,1.1-1.1s-0.5-1.1-1.1-1.1H16.3z"/>
		</g>
		<g>
			<path fill="#FFFFFF" d="M61.4,35.6c-3.5,0-6.4,2.9-6.4,6.4c0,3.5,2.9,6.4,6.4,6.4c3.5,0,6.4-2.9,6.4-6.4
				C67.8,38.4,65,35.6,61.4,35.6z M61.4,45.3c-1.8,0-3.3-1.5-3.3-3.3c0-1.8,1.5-3.3,3.3-3.3c1.8,0,3.3,1.5,3.3,3.3
				C64.7,43.8,63.2,45.3,61.4,45.3z"/>
			<path fill="#FFFFFF" d="M61.4,48.9c-3.8,0-6.9-3.1-6.9-6.9s3.1-6.9,6.9-6.9c3.8,0,6.9,3.1,6.9,6.9S65.2,48.9,61.4,48.9z
				 M61.4,36.1c-3.3,0-5.9,2.7-5.9,5.9s2.7,5.9,5.9,5.9c3.3,0,5.9-2.7,5.9-5.9S64.7,36.1,61.4,36.1z M61.4,45.8
				c-2.1,0-3.8-1.7-3.8-3.8s1.7-3.8,3.8-3.8s3.8,1.7,3.8,3.8S63.5,45.8,61.4,45.8z M61.4,39.2c-1.6,0-2.8,1.3-2.8,2.8
				s1.3,2.8,2.8,2.8c1.6,0,2.8-1.3,2.8-2.8S63,39.2,61.4,39.2z"/>
		</g>
		<g>
			<path fill="#FFFFFF" d="M14.4,35.6C10.8,35.6,8,38.4,8,42c0,3.5,2.9,6.4,6.4,6.4c3.5,0,6.4-2.9,6.4-6.4
				C20.8,38.4,17.9,35.6,14.4,35.6z M14.4,45.3c-1.8,0-3.3-1.5-3.3-3.3c0-1.8,1.5-3.3,3.3-3.3c1.8,0,3.3,1.5,3.3,3.3
				C17.7,43.8,16.2,45.3,14.4,45.3z"/>
			<path fill="#FFFFFF" d="M14.4,48.9c-3.8,0-6.9-3.1-6.9-6.9s3.1-6.9,6.9-6.9s6.9,3.1,6.9,6.9S18.2,48.9,14.4,48.9z M14.4,36.1
				c-3.3,0-5.9,2.7-5.9,5.9s2.7,5.9,5.9,5.9s5.9-2.7,5.9-5.9S17.7,36.1,14.4,36.1z M14.4,45.8c-2.1,0-3.8-1.7-3.8-3.8
				s1.7-3.8,3.8-3.8c2.1,0,3.8,1.7,3.8,3.8S16.5,45.8,14.4,45.8z M14.4,39.2c-1.6,0-2.8,1.3-2.8,2.8s1.3,2.8,2.8,2.8
				s2.8-1.3,2.8-2.8S15.9,39.2,14.4,39.2z"/>
		</g>
		<g>
			<path fill="#FFFFFF" d="M45.9,36.4H30.3c-1.7,0-3.2,0.7-4.2,1.9c-1,1.2-1.3,2.9-0.9,4.5l0.8,3.4c0.8,3.2,4,5.7,7.3,5.7h9.3
				c3.3,0,6.5-2.5,7.3-5.7l0.8-3.4c0.4-1.7,0.1-3.3-0.9-4.5C49.1,37.1,47.6,36.4,45.9,36.4z M47.9,42.2L47,45.5
				c-0.4,1.8-2.5,3.4-4.3,3.4h-9.3c-1.8,0-3.8-1.6-4.3-3.4l-0.8-3.4c-0.2-0.7-0.1-1.4,0.3-1.9c0.4-0.5,1-0.7,1.7-0.7h15.6
				c0.8,0,1.4,0.3,1.7,0.7C48,40.8,48.1,41.4,47.9,42.2z"/>
			<path fill="#FFFFFF" d="M42.7,52.5h-9.3c-3.5,0-6.9-2.7-7.8-6.1L24.8,43c-0.5-1.8-0.1-3.6,0.9-5c1.1-1.3,2.7-2.1,4.6-2.1h15.6
				c1.9,0,3.5,0.8,4.6,2.1c1.1,1.3,1.4,3.2,0.9,5l-0.8,3.4C49.7,49.8,46.3,52.5,42.7,52.5z M30.3,36.9c-1.6,0-2.9,0.6-3.8,1.7
				c-0.9,1.1-1.1,2.6-0.8,4.1l0.8,3.4c0.7,3,3.7,5.3,6.8,5.3h9.3c3.1,0,6.1-2.3,6.8-5.3l0.8-3.4c0.4-1.5,0.1-3-0.8-4.1
				c-0.9-1.1-2.2-1.7-3.8-1.7H30.3z M42.7,49.4h-9.3c-2.1,0-4.3-1.7-4.8-3.7l-0.8-3.4c-0.2-0.9-0.1-1.7,0.4-2.3
				c0.5-0.6,1.2-0.9,2.1-0.9h15.6c0.9,0,1.7,0.3,2.1,0.9c0.5,0.6,0.6,1.4,0.4,2.3h0l-0.8,3.4C47,47.7,44.8,49.4,42.7,49.4z
				 M30.3,40.1c-0.6,0-1.1,0.2-1.3,0.5c-0.3,0.3-0.3,0.9-0.2,1.4l0.8,3.4c0.4,1.6,2.2,3,3.8,3h9.3c1.6,0,3.4-1.4,3.8-3l0.8-3.4h0
				c0.1-0.6,0.1-1.1-0.2-1.4c-0.3-0.3-0.7-0.5-1.3-0.5H30.3z"/>
		</g>
	</g>
	<g>
		<g>
			<path fill="#FFFFFF" d="M59.8,67.6c-0.7,0-1.6-0.6-1.6-1.2v-8.1c0-0.9-0.7-1.6-1.6-1.6H19.4c-0.9,0-1.6,0.7-1.6,1.6v8.1
				c0,0.6-0.8,1.2-1.6,1.2H10c-0.7,0-1.6-0.6-1.6-1.2v-7c0-0.4-0.1-0.6-0.2-0.8c-0.1-0.3-0.2-0.5-0.3-0.7c-0.8-0.9-1.7-2.4-1.9-4.1
				L4.6,37c-0.2-2.8,1.3-5.3,3.9-6.2c0.7-0.2,1.1-0.9,1-1.6c-0.1-0.5,0-0.9,0.2-1.3l4.9-15.9c1.9-4.7,8.2-5,10.1-5h19.7l0.3-3.1
				H24.6c-6.3,0-11.2,2.6-13,7.1L6.7,26.7c-0.2,0.5-0.3,1-0.4,1.5c-3.2,1.7-5.2,5.1-4.8,9L3,54c0.2,1.9,1,3.9,2.4,5.6
				c0,0,0,0.1,0,0.1v6.7c0,2.3,2.2,4.3,4.7,4.3h6.2c2.5,0,4.7-2,4.7-4.3v-6.6h34.2v6.6c0,2.3,2.2,4.3,4.7,4.3V67.6z"/>
			<path fill="#FFFFFF" d="M60.3,71.2h-0.5c-2.8,0-5.2-2.3-5.2-4.8v-6.1H21.4v6.1c0,2.6-2.4,4.8-5.2,4.8H10c-2.8,0-5.2-2.3-5.2-4.8
				v-6.5C3.5,58,2.6,56,2.5,54L1,37.3c-0.3-3.9,1.6-7.5,4.9-9.3c0.1-0.5,0.2-1,0.4-1.4l4.9-15.8c1.9-4.7,7-7.4,13.5-7.4h20.5
				l-0.4,4.1H24.6c-1.8,0-7.8,0.3-9.6,4.7l-4.9,15.8C10,28.3,9.9,28.6,10,29c0.1,1-0.4,1.8-1.3,2.2c-2.3,0.9-3.7,3.2-3.5,5.7
				l1.5,16.8c0.1,1.6,1,3,1.8,3.9c0.2,0.2,0.4,0.5,0.4,0.9C8.9,58.7,9,59,9,59.4v7c0,0.3,0.5,0.7,1.1,0.7h6.2c0.5,0,1.1-0.5,1.1-0.7
				v-8.1c0-1.1,0.9-2.1,2.1-2.1h37.4c1.1,0,2.1,0.9,2.1,2.1v8.1c0,0.3,0.5,0.7,1.1,0.7h0.5V71.2z M24.6,4.3
				c-6.1,0-10.8,2.5-12.5,6.8L7.2,26.8c-0.2,0.5-0.3,0.9-0.3,1.4l0,0.3l-0.2,0.1c-3.1,1.6-4.9,4.9-4.6,8.5l1.5,16.8
				c0.2,1.8,0.9,3.7,2.3,5.3l0.1,0.2l0,0.2v6.7c0,2,1.9,3.8,4.2,3.8h6.2c2.2,0,4.2-1.8,4.2-3.8v-7.1h35.2v7.1c0,1.9,1.7,3.6,3.7,3.8
				V68c-0.8-0.2-1.6-0.9-1.6-1.7v-8.1c0-0.6-0.5-1.1-1.1-1.1H19.4c-0.6,0-1.1,0.5-1.1,1.1v8.1c0,0.9-1,1.7-2.1,1.7H10
				c-1,0-2.1-0.9-2.1-1.7v-7c0-0.2,0-0.4-0.1-0.6l0-0.1c0-0.2-0.1-0.3-0.2-0.5c-0.8-1-1.8-2.5-2-4.4L4.1,37c-0.3-3,1.4-5.7,4.2-6.8
				C8.8,30.1,9,29.6,9,29.1c-0.1-0.6,0-1.1,0.2-1.6L14,11.7c2.1-5,8.6-5.4,10.6-5.4h19.2L44,4.3H24.6z"/>
		</g>
	</g>
</g>
</svg>
