<?xml version="1.0" encoding="utf-8"?>
<!-- Generator: Adobe Illustrator 17.1.0, SVG Export Plug-In . SVG Version: 6.00 Build 0)  -->
<!DOCTYPE svg PUBLIC "-//W3C//DTD SVG 1.1//EN" "http://www.w3.org/Graphics/SVG/1.1/DTD/svg11.dtd">
<svg version="1.1" id="Layer_1" xmlns="http://www.w3.org/2000/svg" xmlns:xlink="http://www.w3.org/1999/xlink" x="0px" y="0px"
	 viewBox="0 0 85 85" enable-background="new 0 0 85 85" xml:space="preserve">
<g id="Home_2_">
	<g>
		<path fill-rule="evenodd" clip-rule="evenodd" fill="#FFFFFF" d="M81.5,36.9L49.9,4c-2-2-4.6-3.2-7.4-3.2c-2.8,0-5.4,1.1-7.4,3.2
			L3.5,36.9c-3.3,3.4-2.8,6.3-2.3,7.5c0.4,0.9,1.7,3.3,5.4,3.3h4.6V73c0,5.7,4.1,11.1,10,11.1h13.4V57.4c0-2.9-0.4-4.5,2.5-4.5h10.6
			c2.9,0,2.5,1.6,2.5,4.5v26.8h13.4c5.9,0,10-5.4,10-11.1V47.7h4.6c3.7,0,5-2.4,5.4-3.3C84.3,43.2,84.8,40.3,81.5,36.9z M78.4,42.5
			h-9.8V73c0,2.9-1.8,5.9-4.8,5.9h-8.2V57.4c0-5.7-1.8-9.7-7.7-9.7H37.2c-5.9,0-7.7,3.9-7.7,9.7v21.5h-8.2c-2.9,0-4.8-3.1-4.8-5.9
			V42.5H6.6c-0.1,0-0.2-0.4-0.3-0.4c0.2-0.3,0.5-1.1,1-1.6L39,7.7c0.9-1,2.3-1.6,3.6-1.6c1.3,0,2.5,0.6,3.5,1.6l31.6,32.8
			c0.5,0.5,0.8,1.3,1,1.6C78.6,42.1,78.5,42.5,78.4,42.5z"/>
	</g>
</g>
</svg>
