<svg id="Layer_1" data-name="Layer 1" xmlns="http://www.w3.org/2000/svg" width="76.403" height="74.839" viewBox="0 0 76.403 74.839">
  <title>new</title>
  <g>
    <path d="M76.377,42.062A38.835,38.835,0,0,0,38.2,9.261c-.176,0-.351.006-.525.011l-.258.011a2.107,2.107,0,0,0-.6.011A38.84,38.84,0,0,0,.026,42.062,2.324,2.324,0,0,0,1.975,44.7a2.281,2.281,0,0,0,1.91-.593c10.971-6.015,17.246.608,17.507.892a2.323,2.323,0,0,0,3.269.172,2.177,2.177,0,0,0,.353-.408l.049-.03c12.254-8.827,25.628-.041,26.223.351a.744.744,0,0,0,.066.072A2.394,2.394,0,0,0,54.624,45c.264-.284,6.565-6.934,17.573-.859a2.241,2.241,0,0,0,.672.236,2.273,2.273,0,0,0,1.56.322,2.32,2.32,0,0,0,1.948-2.641ZM49.74,39.069a32.477,32.477,0,0,0-12.786-2.825,24.441,24.441,0,0,0-11.332,2.713C27.495,22.076,34.583,16.185,37.7,14.385,40.812,16.141,47.889,21.962,49.74,39.069ZM70.819,38.4c-7.3-2.765-12.873-1.059-16.376,1-1.286-13.253-5.619-20.721-9.249-24.754A34.3,34.3,0,0,1,70.819,38.4ZM29.878,14.956C26.4,18.95,22.246,26.264,20.942,39.042a17.626,17.626,0,0,0-8.322-2.073,20.671,20.671,0,0,0-6.989,1.274A34.079,34.079,0,0,1,29.878,14.956Z" fill="#fff"/>
    <path d="M35.861,43.9l.01.036V67.966a3.252,3.252,0,0,1-2.848,2.873H31.96c-1.33,0-2.088-1.543-2.088-2.873V65.839h-5v2.127a6.939,6.939,0,0,0,7.088,6.873h1.064a6.735,6.735,0,0,0,6.848-6.873v-23.9l.03-.051A8.264,8.264,0,0,0,35.861,43.9Z" fill="#fff"/>
    <path d="M39.872,2.32a2.022,2.022,0,1,0-4,0V5.839h4Z" fill="#fff"/>
  </g>
</svg>
