<svg id="Layer_1" data-name="Layer 1" xmlns="http://www.w3.org/2000/svg" width="72.818" height="90.544" viewBox="0 0 72.818 90.544">
  <title>new</title>
  <g>
    <path d="M15.522,67.609v8.228a2.307,2.307,0,0,0,2.307,2.307h2.708l1.829,10.49a2.305,2.305,0,0,0,2.272,1.91H49.924a2.305,2.305,0,0,0,2.272-1.91l1.829-10.49h2.707a2.307,2.307,0,0,0,2.307-2.307V67.609A2.307,2.307,0,0,0,56.732,65.3h-38.9A2.307,2.307,0,0,0,15.522,67.609Zm9.7,10.553H49.34l-1.355,7.768H26.578Zm-5.087-8.247h34.29v3.614H20.135Z" fill="#fff"/>
    <path d="M57.105,23.991a7.074,7.074,0,0,0-.99-.554A23.285,23.285,0,0,0,50.658,21.9V16.873c2.318.347,3.842,1.205,4.283,1.816l3.746-1.319c-.986-2.323-4.037-4.035-8.028-4.485V10.368H46.7v2.487c-5.019.5-8.613,2.978-8.613,6.165a5.257,5.257,0,0,0,2.8,4.337l-.023.016c.059.031.127.064.2.1A20.1,20.1,0,0,0,46.7,25.083v4.786c-2.641-.347-4.3-1.357-4.586-1.984l-3.859.944c.743,2.629,4.042,4.6,8.445,5.034V36.43h3.954V33.838c4.9-.549,8.379-3.006,8.379-6.144A4.846,4.846,0,0,0,57.105,23.991ZM46.7,21.182c-2.923-.384-4.658-1.576-4.658-2.162s1.733-1.79,4.658-2.175Zm3.954,8.651V25.559c2.782.416,4.424,1.564,4.424,2.135S53.438,29.416,50.658,29.834Z" fill="#fff"/>
    <path d="M.4,46.124a30.45,30.45,0,0,0,11.8,9.5,16,16,0,0,0,6.52,1.345c4.1,0,8.555-1.5,10.566-4.395a25.632,25.632,0,0,1,6.928,5.1c-.309,2.451-.6,5.318-.844,8.7H40c.084-1.11.173-2.139.263-3.129.033-.04.075-.072.106-.116.95-1.335,5.073-2.291,7.683-2.466a2.307,2.307,0,0,0-.311-4.6,25.53,25.53,0,0,0-6.844,1.43c.895-6.746,1.876-9.365,2.354-10.291a23.94,23.94,0,1,0-4.376-1.515,30.673,30.673,0,0,0-1.809,6.474,32.485,32.485,0,0,0-6.787-4.235A8.481,8.481,0,0,0,28.452,44.1a16.618,16.618,0,0,0-12.4-5.561l-.444.007C6.48,38.813,1.13,42.817.907,42.988A2.308,2.308,0,0,0,.4,46.124Zm48.469-2.848A19.331,19.331,0,1,1,68.205,23.945,19.359,19.359,0,0,1,48.871,43.276ZM5.835,45.451a24.829,24.829,0,0,1,9.909-2.288l.312-.005A12.1,12.1,0,0,1,24.864,47a3.21,3.21,0,0,1,.871,2.412c-.256,1.2-3.115,2.935-7.014,2.935a11.355,11.355,0,0,1-4.627-.939A26.447,26.447,0,0,1,5.835,45.451Z" fill="#fff"/>
  </g>
</svg>
